<svg xmlns="http://www.w3.org/2000/svg" viewBox="0 0 392 64" width="392" height="64"><rect x="1" y="1" width="390" height="62" rx="12" fill="#fbf3e2" stroke="#4a3426" stroke-width="2"/><rect x="4" y="31.0" width="3" height="2.0" rx="1.5" fill="#8fae86"/><rect x="8" y="31.0" width="3" height="2.0" rx="1.5" fill="#8fae86"/><rect x="12" y="31.0" width="3" height="2.0" rx="1.5" fill="#8fae86"/><rect x="16" y="31.0" width="3" height="2.0" rx="1.5" fill="#8fae86"/><rect x="20" y="31.0" width="3" height="2.0" rx="1.5" fill="#8fae86"/><rect x="24" y="31.0" width="3" height="2.0" rx="1.5" fill="#8fae86"/><rect x="28" y="31.0" width="3" height="2.0" rx="1.5" fill="#8fae86"/><rect x="32" y="31.0" width="3" height="2.0" rx="1.5" fill="#8fae86"/><rect x="36" y="31.0" width="3" height="2.0" rx="1.5" fill="#8fae86"/><rect x="40" y="31.0" width="3" height="2.0" rx="1.5" fill="#8fae86"/><rect x="44" y="4.0" width="3" height="56.0" rx="1.5" fill="#8fae86"/><rect x="48" y="15.8" width="3" height="32.5" rx="1.5" fill="#8fae86"/><rect x="52" y="22.2" width="3" height="19.5" rx="1.5" fill="#8fae86"/><rect x="56" y="26.1" width="3" height="11.9" rx="1.5" fill="#8fae86"/><rect x="60" y="28.4" width="3" height="7.2" rx="1.5" fill="#8fae86"/><rect x="64" y="29.8" width="3" height="4.4" rx="1.5" fill="#8fae86"/><rect x="68" y="30.7" width="3" height="2.7" rx="1.5" fill="#8fae86"/><rect x="72" y="31.0" width="3" height="2.0" rx="1.5" fill="#8fae86"/><rect x="76" y="31.0" width="3" height="2.0" rx="1.5" fill="#8fae86"/><rect x="80" y="31.0" width="3" height="2.0" rx="1.5" fill="#8fae86"/><rect x="84" y="31.0" width="3" height="2.0" rx="1.5" fill="#8fae86"/><rect x="88" y="31.0" width="3" height="2.0" rx="1.5" fill="#8fae86"/><rect x="92" y="31.0" width="3" height="2.0" rx="1.5" fill="#8fae86"/><rect x="96" y="31.0" width="3" height="2.0" rx="1.5" fill="#8fae86"/><rect x="100" y="31.0" width="3" height="2.0" rx="1.5" fill="#8fae86"/><rect x="104" y="31.0" width="3" height="2.0" rx="1.5" fill="#8fae86"/><rect x="108" y="31.0" width="3" height="2.0" rx="1.5" fill="#8fae86"/><rect x="112" y="31.0" width="3" height="2.0" rx="1.5" fill="#8fae86"/><rect x="116" y="31.0" width="3" height="2.0" rx="1.5" fill="#8fae86"/><rect x="120" y="31.0" width="3" height="2.0" rx="1.5" fill="#8fae86"/><rect x="124" y="4.1" width="3" height="55.9" rx="1.5" fill="#8fae86"/><rect x="128" y="15.5" width="3" height="33.1" rx="1.5" fill="#8fae86"/><rect x="132" y="22.2" width="3" height="19.6" rx="1.5" fill="#8fae86"/><rect x="136" y="26.0" width="3" height="11.9" rx="1.5" fill="#8fae86"/><rect x="140" y="28.4" width="3" height="7.2" rx="1.5" fill="#8fae86"/><rect x="144" y="29.8" width="3" height="4.4" rx="1.5" fill="#8fae86"/><rect x="148" y="30.7" width="3" height="2.7" rx="1.5" fill="#8fae86"/><rect x="152" y="31.0" width="3" height="2.0" rx="1.5" fill="#8fae86"/><rect x="156" y="31.0" width="3" height="2.0" rx="1.5" fill="#8fae86"/><rect x="160" y="31.0" width="3" height="2.0" rx="1.5" fill="#8fae86"/><rect x="164" y="31.0" width="3" height="2.0" rx="1.5" fill="#8fae86"/><rect x="168" y="31.0" width="3" height="2.0" rx="1.5" fill="#8fae86"/><rect x="172" y="31.0" width="3" height="2.0" rx="1.5" fill="#8fae86"/><rect x="176" y="31.0" width="3" height="2.0" rx="1.5" fill="#8fae86"/><rect x="180" y="31.0" width="3" height="2.0" rx="1.5" fill="#8fae86"/><rect x="184" y="31.0" width="3" height="2.0" rx="1.5" fill="#8fae86"/><rect x="188" y="31.0" width="3" height="2.0" rx="1.5" fill="#8fae86"/><rect x="192" y="31.0" width="3" height="2.0" rx="1.5" fill="#8fae86"/><rect x="196" y="31.0" width="3" height="2.0" rx="1.5" fill="#8fae86"/><rect x="200" y="31.0" width="3" height="2.0" rx="1.5" fill="#8fae86"/><rect x="204" y="5.7" width="3" height="52.5" rx="1.5" fill="#8fae86"/><rect x="208" y="15.8" width="3" height="32.4" rx="1.5" fill="#8fae86"/><rect x="212" y="22.2" width="3" height="19.6" rx="1.5" fill="#8fae86"/><rect x="216" y="26.0" width="3" height="11.9" rx="1.5" fill="#8fae86"/><rect x="220" y="28.4" width="3" height="7.2" rx="1.5" fill="#8fae86"/><rect x="224" y="29.8" width="3" height="4.4" rx="1.5" fill="#8fae86"/><rect x="228" y="30.7" width="3" height="2.7" rx="1.5" fill="#8fae86"/><rect x="232" y="31.0" width="3" height="2.0" rx="1.5" fill="#8fae86"/><rect x="236" y="31.0" width="3" height="2.0" rx="1.5" fill="#8fae86"/><rect x="240" y="31.0" width="3" height="2.0" rx="1.5" fill="#8fae86"/><rect x="244" y="31.0" width="3" height="2.0" rx="1.5" fill="#8fae86"/><rect x="248" y="31.0" width="3" height="2.0" rx="1.5" fill="#8fae86"/><rect x="252" y="31.0" width="3" height="2.0" rx="1.5" fill="#8fae86"/><rect x="256" y="31.0" width="3" height="2.0" rx="1.5" fill="#8fae86"/><rect x="260" y="31.0" width="3" height="2.0" rx="1.5" fill="#8fae86"/><rect x="264" y="31.0" width="3" height="2.0" rx="1.5" fill="#8fae86"/><rect x="268" y="31.0" width="3" height="2.0" rx="1.5" fill="#8fae86"/><rect x="272" y="31.0" width="3" height="2.0" rx="1.5" fill="#8fae86"/><rect x="276" y="31.0" width="3" height="2.0" rx="1.5" fill="#8fae86"/><rect x="280" y="31.0" width="3" height="2.0" rx="1.5" fill="#8fae86"/><rect x="284" y="4.8" width="3" height="54.4" rx="1.5" fill="#8fae86"/><rect x="288" y="15.5" width="3" height="33.0" rx="1.5" fill="#8fae86"/><rect x="292" y="22.2" width="3" height="19.7" rx="1.5" fill="#8fae86"/><rect x="296" y="26.0" width="3" height="11.9" rx="1.5" fill="#8fae86"/><rect x="300" y="28.4" width="3" height="7.2" rx="1.5" fill="#8fae86"/><rect x="304" y="29.8" width="3" height="4.4" rx="1.5" fill="#8fae86"/><rect x="308" y="30.7" width="3" height="2.7" rx="1.5" fill="#8fae86"/><rect x="312" y="31.0" width="3" height="2.0" rx="1.5" fill="#8fae86"/><rect x="316" y="31.0" width="3" height="2.0" rx="1.5" fill="#8fae86"/><rect x="320" y="31.0" width="3" height="2.0" rx="1.5" fill="#8fae86"/><rect x="324" y="31.0" width="3" height="2.0" rx="1.5" fill="#8fae86"/><rect x="328" y="31.0" width="3" height="2.0" rx="1.5" fill="#8fae86"/><rect x="332" y="31.0" width="3" height="2.0" rx="1.5" fill="#8fae86"/><rect x="336" y="31.0" width="3" height="2.0" rx="1.5" fill="#8fae86"/><rect x="340" y="31.0" width="3" height="2.0" rx="1.5" fill="#8fae86"/><rect x="344" y="31.0" width="3" height="2.0" rx="1.5" fill="#8fae86"/><rect x="348" y="31.0" width="3" height="2.0" rx="1.5" fill="#8fae86"/><rect x="352" y="31.0" width="3" height="2.0" rx="1.5" fill="#8fae86"/><rect x="356" y="31.0" width="3" height="2.0" rx="1.5" fill="#8fae86"/><rect x="360" y="31.0" width="3" height="2.0" rx="1.5" fill="#8fae86"/><rect x="364" y="31.0" width="3" height="2.0" rx="1.5" fill="#8fae86"/><rect x="368" y="31.0" width="3" height="2.0" rx="1.5" fill="#8fae86"/><rect x="372" y="31.0" width="3" height="2.0" rx="1.5" fill="#8fae86"/><rect x="376" y="31.0" width="3" height="2.0" rx="1.5" fill="#8fae86"/><rect x="380" y="31.0" width="3" height="2.0" rx="1.5" fill="#8fae86"/><rect x="384" y="31.0" width="3" height="2.0" rx="1.5" fill="#8fae86"/></svg>
