<svg xmlns="http://www.w3.org/2000/svg" viewBox="0 0 392 64" width="392" height="64"><rect x="1" y="1" width="390" height="62" rx="12" fill="#fbf3e2" stroke="#4a3426" stroke-width="2"/><rect x="4" y="31.0" width="3" height="2.0" rx="1.5" fill="#8fae86"/><rect x="8" y="31.0" width="3" height="2.0" rx="1.5" fill="#8fae86"/><rect x="12" y="31.0" width="3" height="2.0" rx="1.5" fill="#8fae86"/><rect x="16" y="31.0" width="3" height="2.0" rx="1.5" fill="#8fae86"/><rect x="20" y="31.0" width="3" height="2.0" rx="1.5" fill="#8fae86"/><rect x="24" y="31.0" width="3" height="2.0" rx="1.5" fill="#8fae86"/><rect x="28" y="31.0" width="3" height="2.0" rx="1.5" fill="#8fae86"/><rect x="32" y="30.9" width="3" height="2.3" rx="1.5" fill="#8fae86"/><rect x="36" y="24.1" width="3" height="15.7" rx="1.5" fill="#8fae86"/><rect x="40" y="17.0" width="3" height="29.9" rx="1.5" fill="#8fae86"/><rect x="44" y="11.5" width="3" height="41.1" rx="1.5" fill="#8fae86"/><rect x="48" y="14.4" width="3" height="35.1" rx="1.5" fill="#8fae86"/><rect x="52" y="14.8" width="3" height="34.4" rx="1.5" fill="#8fae86"/><rect x="56" y="18.2" width="3" height="27.5" rx="1.5" fill="#8fae86"/><rect x="60" y="21.9" width="3" height="20.2" rx="1.5" fill="#8fae86"/><rect x="64" y="29.4" width="3" height="5.2" rx="1.5" fill="#8fae86"/><rect x="68" y="31.0" width="3" height="2.0" rx="1.5" fill="#8fae86"/><rect x="72" y="31.0" width="3" height="2.0" rx="1.5" fill="#8fae86"/><rect x="76" y="31.0" width="3" height="2.0" rx="1.5" fill="#8fae86"/><rect x="80" y="31.0" width="3" height="2.0" rx="1.5" fill="#8fae86"/><rect x="84" y="28.9" width="3" height="6.3" rx="1.5" fill="#8fae86"/><rect x="88" y="19.5" width="3" height="25.0" rx="1.5" fill="#8fae86"/><rect x="92" y="11.2" width="3" height="41.6" rx="1.5" fill="#8fae86"/><rect x="96" y="10.5" width="3" height="43.1" rx="1.5" fill="#8fae86"/><rect x="100" y="8.1" width="3" height="47.8" rx="1.5" fill="#8fae86"/><rect x="104" y="12.6" width="3" height="38.8" rx="1.5" fill="#8fae86"/><rect x="108" y="16.4" width="3" height="31.3" rx="1.5" fill="#8fae86"/><rect x="112" y="18.9" width="3" height="26.2" rx="1.5" fill="#8fae86"/><rect x="116" y="29.6" width="3" height="4.7" rx="1.5" fill="#8fae86"/><rect x="120" y="31.0" width="3" height="2.0" rx="1.5" fill="#8fae86"/><rect x="124" y="31.0" width="3" height="2.0" rx="1.5" fill="#8fae86"/><rect x="128" y="30.2" width="3" height="3.5" rx="1.5" fill="#8fae86"/><rect x="132" y="18.0" width="3" height="27.9" rx="1.5" fill="#8fae86"/><rect x="136" y="8.5" width="3" height="46.9" rx="1.5" fill="#8fae86"/><rect x="140" y="9.9" width="3" height="44.2" rx="1.5" fill="#8fae86"/><rect x="144" y="6.9" width="3" height="50.2" rx="1.5" fill="#8fae86"/><rect x="148" y="5.2" width="3" height="53.6" rx="1.5" fill="#8fae86"/><rect x="152" y="13.9" width="3" height="36.2" rx="1.5" fill="#8fae86"/><rect x="156" y="18.4" width="3" height="27.1" rx="1.5" fill="#8fae86"/><rect x="160" y="28.9" width="3" height="6.2" rx="1.5" fill="#8fae86"/><rect x="164" y="31.0" width="3" height="2.0" rx="1.5" fill="#8fae86"/><rect x="168" y="31.0" width="3" height="2.0" rx="1.5" fill="#8fae86"/><rect x="172" y="31.0" width="3" height="2.0" rx="1.5" fill="#8fae86"/><rect x="176" y="31.0" width="3" height="2.0" rx="1.5" fill="#8fae86"/><rect x="180" y="31.0" width="3" height="2.0" rx="1.5" fill="#8fae86"/><rect x="184" y="31.0" width="3" height="2.0" rx="1.5" fill="#8fae86"/><rect x="188" y="31.0" width="3" height="2.0" rx="1.5" fill="#8fae86"/><rect x="192" y="31.0" width="3" height="2.0" rx="1.5" fill="#8fae86"/><rect x="196" y="31.0" width="3" height="2.0" rx="1.5" fill="#8fae86"/><rect x="200" y="31.0" width="3" height="2.0" rx="1.5" fill="#8fae86"/><rect x="204" y="31.0" width="3" height="2.0" rx="1.5" fill="#8fae86"/><rect x="208" y="31.0" width="3" height="2.0" rx="1.5" fill="#8fae86"/><rect x="212" y="31.0" width="3" height="2.0" rx="1.5" fill="#8fae86"/><rect x="216" y="31.0" width="3" height="2.0" rx="1.5" fill="#8fae86"/><rect x="220" y="31.0" width="3" height="2.0" rx="1.5" fill="#8fae86"/><rect x="224" y="31.0" width="3" height="2.0" rx="1.5" fill="#8fae86"/><rect x="228" y="31.0" width="3" height="2.0" rx="1.5" fill="#8fae86"/><rect x="232" y="31.0" width="3" height="2.0" rx="1.5" fill="#8fae86"/><rect x="236" y="31.0" width="3" height="2.0" rx="1.5" fill="#8fae86"/><rect x="240" y="27.2" width="3" height="9.6" rx="1.5" fill="#8fae86"/><rect x="244" y="16.8" width="3" height="30.5" rx="1.5" fill="#8fae86"/><rect x="248" y="9.7" width="3" height="44.5" rx="1.5" fill="#8fae86"/><rect x="252" y="6.0" width="3" height="52.1" rx="1.5" fill="#8fae86"/><rect x="256" y="4.0" width="3" height="56.0" rx="1.5" fill="#8fae86"/><rect x="260" y="13.4" width="3" height="37.1" rx="1.5" fill="#8fae86"/><rect x="264" y="14.5" width="3" height="35.1" rx="1.5" fill="#8fae86"/><rect x="268" y="23.2" width="3" height="17.5" rx="1.5" fill="#8fae86"/><rect x="272" y="31.0" width="3" height="2.0" rx="1.5" fill="#8fae86"/><rect x="276" y="31.0" width="3" height="2.0" rx="1.5" fill="#8fae86"/><rect x="280" y="31.0" width="3" height="2.0" rx="1.5" fill="#8fae86"/><rect x="284" y="31.0" width="3" height="2.0" rx="1.5" fill="#8fae86"/><rect x="288" y="31.0" width="3" height="2.0" rx="1.5" fill="#8fae86"/><rect x="292" y="25.7" width="3" height="12.6" rx="1.5" fill="#8fae86"/><rect x="296" y="14.3" width="3" height="35.4" rx="1.5" fill="#8fae86"/><rect x="300" y="9.6" width="3" height="44.7" rx="1.5" fill="#8fae86"/><rect x="304" y="8.4" width="3" height="47.1" rx="1.5" fill="#8fae86"/><rect x="308" y="7.1" width="3" height="49.8" rx="1.5" fill="#8fae86"/><rect x="312" y="7.0" width="3" height="50.0" rx="1.5" fill="#8fae86"/><rect x="316" y="12.0" width="3" height="40.0" rx="1.5" fill="#8fae86"/><rect x="320" y="20.3" width="3" height="23.3" rx="1.5" fill="#8fae86"/><rect x="324" y="31.0" width="3" height="2.0" rx="1.5" fill="#8fae86"/><rect x="328" y="31.0" width="3" height="2.0" rx="1.5" fill="#8fae86"/><rect x="332" y="31.0" width="3" height="2.0" rx="1.5" fill="#8fae86"/><rect x="336" y="31.0" width="3" height="2.0" rx="1.5" fill="#8fae86"/><rect x="340" y="31.0" width="3" height="2.0" rx="1.5" fill="#8fae86"/><rect x="344" y="31.0" width="3" height="2.0" rx="1.5" fill="#8fae86"/><rect x="348" y="31.0" width="3" height="2.0" rx="1.5" fill="#8fae86"/><rect x="352" y="31.0" width="3" height="2.0" rx="1.5" fill="#8fae86"/><rect x="356" y="31.0" width="3" height="2.0" rx="1.5" fill="#8fae86"/><rect x="360" y="31.0" width="3" height="2.0" rx="1.5" fill="#8fae86"/><rect x="364" y="31.0" width="3" height="2.0" rx="1.5" fill="#8fae86"/><rect x="368" y="31.0" width="3" height="2.0" rx="1.5" fill="#8fae86"/><rect x="372" y="31.0" width="3" height="2.0" rx="1.5" fill="#8fae86"/><rect x="376" y="31.0" width="3" height="2.0" rx="1.5" fill="#8fae86"/><rect x="380" y="31.0" width="3" height="2.0" rx="1.5" fill="#8fae86"/><rect x="384" y="31.0" width="3" height="2.0" rx="1.5" fill="#8fae86"/></svg>
